<svg xmlns="http://www.w3.org/2000/svg" viewBox="0 0 100 100">
  <!-- Cobra Club Belgium Favicon - Classic Sports Car Silhouette -->
  <defs>
    <linearGradient id="carGradient" x1="0%" y1="0%" x2="0%" y2="100%">
      <stop offset="0%" style="stop-color:#FFD700;stop-opacity:1" />
      <stop offset="100%" style="stop-color:#FFA500;stop-opacity:1" />
    </linearGradient>
  </defs>

  <!-- Background circle -->
  <circle cx="50" cy="50" r="48" fill="#1A1A1A" stroke="#FFD700" stroke-width="2"/>

  <!-- Classic sports car silhouette (Cobra-inspired) -->
  <g fill="url(#carGradient)">
    <!-- Car body -->
    <path d="M 20 55 Q 22 45 30 42 L 40 40 Q 45 38 50 38 Q 55 38 60 40 L 70 42 Q 78 45 80 55 L 82 60 Q 82 65 78 65 L 22 65 Q 18 65 18 60 Z"/>

    <!-- Front windshield -->
    <path d="M 40 40 L 45 35 L 55 35 L 60 40" fill="#2C2C2C"/>

    <!-- Front wheel -->
    <circle cx="32" cy="65" r="8" fill="#2C2C2C" stroke="#FFD700" stroke-width="1"/>
    <circle cx="32" cy="65" r="4" fill="#FFD700"/>

    <!-- Rear wheel -->
    <circle cx="68" cy="65" r="8" fill="#2C2C2C" stroke="#FFD700" stroke-width="1"/>
    <circle cx="68" cy="65" r="4" fill="#FFD700"/>

    <!-- Front detail (aggressive nose) -->
    <ellipse cx="23" cy="55" rx="3" ry="4" fill="#C41E3A"/>

    <!-- Racing stripe -->
    <rect x="48" y="40" width="4" height="15" fill="#C41E3A" opacity="0.8"/>
  </g>
</svg>
